<svg width="32" height="32" viewBox="0 0 32 32" fill="none" xmlns="http://www.w3.org/2000/svg">
<g clip-path="url(#clip0_1_191)">
<path d="M25.999 16L19.999 24H24V32H28V24H31.999L25.999 16Z" fill="white"/>
<path d="M31.12 0.879C30.925 0.684 30.694 0.526 30.45 0.39C30.187 0.244 29.907 0.124 29.603 0.061C29.407 0.021 29.205 0 28.999 0H2.999C2.792 0 2.59 0.021 2.394 0.061C2.07 0.127 1.771 0.256 1.494 0.418C1.27 0.549 1.058 0.697 0.877 0.878H0.878C0.335 1.422 0 2.172 0 3V23C0 23.828 0.335 24.578 0.878 25.121C1.059 25.303 1.271 25.451 1.495 25.581C1.772 25.743 2.07 25.872 2.395 25.938C2.59 25.979 2.792 26 2.999 26H18V24H3.413L12.999 14.414L13.878 15.293C14.461 15.877 15.235 16.173 15.999 16.172C16.763 16.173 17.537 15.877 18.12 15.293L18.999 14.414L22.149 17.564L23.563 16.15L20.413 13L30 3.414V18H32V3C32 2.172 31.663 1.422 31.12 0.879ZM2 22.586V3.414L11.586 13L2 22.586ZM16.706 13.879C16.508 14.076 16.258 14.171 15.999 14.172C15.74 14.171 15.49 14.076 15.292 13.879L3.413 2H28.585L16.706 13.879Z" fill="white"/>
</g>
<defs>
<clipPath id="clip0_1_191">
<rect width="32" height="32" fill="white"/>
</clipPath>
</defs>
</svg>
